<svg version="1.1" id="Layer_1" xmlns="http://www.w3.org/2000/svg" xmlns:xlink="http://www.w3.org/1999/xlink" x="0px" y="0px"
	 width="100%" viewBox="0 0 2000 2000" enable-background="new 0 0 2000 2000" xml:space="preserve">
<path fill="#000000" opacity="1.000000" stroke="none" 
	d="
M917.000000,2001.000000 
	C611.333313,2001.000000 306.166656,2001.000000 1.000000,2001.000000 
	C1.000000,1334.333374 1.000000,667.666687 1.000000,1.000000 
	C667.666687,1.000000 1334.333374,1.000000 2001.000000,1.000000 
	C2001.000000,667.666687 2001.000000,1334.333374 2001.000000,2001.000000 
	C1639.833374,2001.000000 1278.666626,2001.000000 917.000000,2001.000000 
M1300.004028,676.339722 
	C1299.666016,676.184875 1299.328125,676.030029 1298.747925,675.224915 
	C1298.174683,673.865967 1297.751465,672.417480 1297.003296,671.162781 
	C1292.686890,663.923645 1288.142944,656.816589 1283.960693,649.501953 
	C1276.951538,637.243164 1270.302246,624.777588 1263.232300,612.554810 
	C1255.360840,598.946411 1247.090698,585.568909 1239.171875,571.987366 
	C1229.692871,555.729858 1220.401733,539.362793 1210.764771,522.184937 
	C1210.272705,522.120667 1209.780762,522.000183 1209.288696,522.000122 
	C1149.144897,521.994202 1089.001099,522.025208 1028.857422,521.916626 
	C1025.849731,521.911255 1024.452881,523.079285 1023.092712,525.453064 
	C1010.275452,547.821960 997.347961,570.127747 984.487427,592.471863 
	C967.564941,621.873535 950.673889,651.293213 933.244873,681.063843 
	C933.193420,681.685181 933.141907,682.306519 932.740417,683.530212 
	C902.294312,736.519592 871.923462,789.552429 841.385864,842.489075 
	C783.466431,942.891541 725.448303,1043.237061 667.485840,1143.614868 
	C664.951172,1148.004395 662.561707,1152.477661 659.664185,1157.706543 
	C662.507874,1157.836182 664.278809,1157.987183 666.049683,1157.987549 
	C724.524658,1158.001831 782.999756,1158.029175 841.474365,1157.875854 
	C843.310608,1157.870972 845.945068,1156.450684 846.855530,1154.897705 
	C861.369446,1130.140503 875.713806,1105.283325 889.992371,1080.389038 
	C905.746155,1052.922485 921.362061,1025.377075 937.100647,997.901794 
	C944.559998,984.879761 952.188660,971.954895 959.699463,958.962097 
	C977.772766,927.697205 995.858093,896.439148 1013.851990,865.128540 
	C1017.757874,858.332092 1021.300415,851.326721 1025.692261,844.440308 
	C1026.921631,846.690125 1028.091553,848.974731 1029.390259,851.183838 
	C1036.149902,862.683044 1043.033447,874.110596 1049.698486,885.664124 
	C1056.678589,897.763794 1063.390625,910.017822 1070.345093,922.132507 
	C1079.778687,938.566101 1089.301147,954.948792 1098.844360,971.319092 
	C1104.256958,980.603943 1109.786621,989.820496 1114.819214,999.649902 
	C1106.475220,1014.236084 1098.199707,1028.861938 1089.770630,1043.398682 
	C1078.190308,1063.369751 1066.356567,1083.194946 1054.885254,1103.227905 
	C1043.641602,1122.863281 1032.823975,1142.742432 1021.622009,1162.402222 
	C1009.109924,1184.361328 996.356201,1206.182861 983.742249,1228.084106 
	C966.734009,1257.614746 949.758850,1287.164429 932.094604,1317.214233 
	C930.023071,1317.476196 927.951599,1317.967285 925.880005,1317.967651 
	C747.385986,1318.002930 568.892029,1318.002441 390.398041,1317.980225 
	C387.584106,1317.979980 384.770203,1317.680542 381.738373,1317.508301 
	C389.524231,1331.294678 397.137848,1345.046997 405.009674,1358.650024 
	C416.527283,1378.553345 428.318420,1398.298462 439.828064,1418.206299 
	C450.618103,1436.869629 461.174530,1455.668091 471.887207,1474.376343 
	C473.262299,1476.777710 474.973724,1478.123413 478.343597,1478.120850 
	C654.004272,1477.983765 829.664978,1477.999756 1005.325745,1477.999634 
	C1072.156860,1477.999634 1138.987915,1478.006958 1205.818970,1477.954102 
	C1207.239624,1477.953003 1208.659912,1477.264771 1210.521851,1476.385742 
	C1214.583252,1469.598877 1218.735352,1462.864380 1222.690430,1456.016113 
	C1243.482300,1420.015747 1264.253662,1384.003418 1284.960205,1347.953857 
	C1289.460205,1340.119263 1293.664551,1332.114746 1298.656738,1324.421387 
	C1328.558105,1376.236816 1358.459473,1428.052368 1388.437622,1480.000977 
	C1449.386841,1480.000977 1510.536987,1480.006592 1571.687256,1479.960083 
	C1572.862671,1479.959229 1574.037598,1479.346313 1575.764893,1478.614380 
	C1587.429321,1458.506226 1599.108643,1438.406738 1610.754639,1418.287842 
	C1628.686646,1387.310059 1646.583374,1356.311768 1664.534302,1325.345093 
	C1666.229858,1322.420166 1666.844238,1319.665649 1664.988770,1316.544067 
	C1661.168457,1310.116699 1657.480469,1303.610596 1653.755737,1297.126587 
	C1647.848755,1286.843750 1641.969604,1276.544678 1636.053101,1266.267212 
	C1631.911133,1259.072144 1627.692383,1251.921265 1623.570068,1244.715088 
	C1617.838623,1234.696655 1612.210938,1224.618774 1606.452026,1214.616333 
	C1602.231567,1207.285767 1597.808105,1200.072021 1593.589966,1192.740234 
	C1587.834839,1182.736450 1582.261108,1172.628052 1576.477051,1162.641235 
	C1569.959717,1151.388184 1563.212769,1140.267578 1556.719360,1129.000854 
	C1550.954346,1118.997925 1545.467896,1108.834473 1539.732666,1098.813965 
	C1534.082031,1088.941284 1528.256958,1079.168335 1522.538574,1069.334229 
	C1516.739258,1059.360718 1510.996216,1049.354614 1505.193115,1039.383423 
	C1498.731812,1028.281006 1492.214355,1017.211121 1485.759277,1006.104919 
	C1484.275391,1003.551636 1484.072388,1001.145508 1485.732788,998.296143 
	C1501.848022,970.642517 1517.811035,942.900208 1533.833252,915.192322 
	C1548.364990,890.062073 1562.925415,864.948303 1577.457031,839.817993 
	C1592.157349,814.395935 1606.824585,788.954712 1621.530762,763.536011 
	C1635.904785,738.691162 1650.304077,713.860840 1664.709351,689.034119 
	C1666.307983,686.278687 1666.771851,683.649536 1665.041016,680.675598 
	C1660.383057,672.671753 1655.893311,664.570068 1651.326294,656.513245 
	C1646.914185,648.729858 1642.519897,640.936096 1638.060059,633.180115 
	C1633.925903,625.990295 1629.726929,618.837708 1625.535522,611.680969 
	C1621.178223,604.240906 1616.779297,596.825256 1612.429321,589.380920 
	C1607.928589,581.678650 1603.428833,573.975159 1598.994995,566.234253 
	C1594.706421,558.747314 1590.572388,551.171265 1586.239746,543.710388 
	C1582.570068,537.391357 1578.713257,531.181091 1574.557495,524.144836 
	C1563.404541,524.096558 1552.251709,524.010010 1541.098755,524.006592 
	C1491.311768,523.991333 1441.524658,523.984070 1391.737793,524.079346 
	C1390.307739,524.082092 1388.192871,524.863220 1387.551880,525.957642 
	C1372.565918,551.545044 1357.733643,577.222473 1342.885376,602.890381 
	C1328.627686,627.537292 1314.383911,652.192261 1300.099854,676.908264 
	C1300.099854,676.908264 1300.171997,676.897278 1300.004028,676.339722 
M396.278778,709.094299 
	C396.640137,709.438660 397.108002,709.721558 397.347565,710.136353 
	C408.849121,730.050354 420.364197,749.956726 431.806213,769.905029 
	C444.850586,792.646912 457.842682,815.418823 470.814575,838.202148 
	C472.367035,840.928894 474.162018,842.123596 477.642487,842.113831 
	C535.470703,841.953308 593.299500,841.995605 651.128174,842.016479 
	C653.021240,842.017151 654.914185,842.269836 656.504761,842.383484 
	C687.149780,789.273315 717.885620,736.005859 749.214905,681.709717 
	C625.737183,681.709717 503.342041,681.709717 380.839844,681.709717 
	C385.819702,690.590393 390.832855,699.530457 396.278778,709.094299 
z"/>
<path fill="#3F3F3F" opacity="1.000000" stroke="none" 
	d="
M1211.029297,523.043091 
	C1220.401733,539.362793 1229.692871,555.729858 1239.171875,571.987366 
	C1247.090698,585.568909 1255.360840,598.946411 1263.232300,612.554810 
	C1270.302246,624.777588 1276.951538,637.243164 1283.960693,649.501953 
	C1288.142944,656.816589 1292.686890,663.923645 1297.003296,671.162781 
	C1297.751465,672.417480 1298.174683,673.865967 1298.867188,675.931396 
	C1299.381592,676.724426 1299.776733,676.810852 1300.171997,676.897278 
	C1300.171997,676.897278 1300.099854,676.908264 1299.875122,677.181641 
	C1300.360840,678.570923 1301.115234,679.661316 1301.775269,680.806274 
	C1326.461060,723.641479 1351.135742,766.483093 1375.818848,809.319763 
	C1381.275146,818.788757 1386.757446,828.242798 1392.519043,838.207336 
	C1393.711548,836.235596 1394.585205,834.843750 1395.408203,833.422668 
	C1425.673340,781.152954 1455.948730,728.889038 1486.191162,676.606018 
	C1514.399658,627.839294 1542.563354,579.046692 1570.795776,530.293884 
	C1571.919067,528.354187 1573.546631,526.706482 1574.939209,524.922729 
	C1578.713257,531.181091 1582.570068,537.391357 1586.239746,543.710388 
	C1590.572388,551.171265 1594.706421,558.747314 1598.994995,566.234253 
	C1603.428833,573.975159 1607.928589,581.678650 1612.429321,589.380920 
	C1616.779297,596.825256 1621.178223,604.240906 1625.535522,611.680969 
	C1629.726929,618.837708 1633.925903,625.990295 1638.060059,633.180115 
	C1642.519897,640.936096 1646.914185,648.729858 1651.326294,656.513245 
	C1655.893311,664.570068 1660.383057,672.671753 1665.041016,680.675598 
	C1666.771851,683.649536 1666.307983,686.278687 1664.709351,689.034119 
	C1650.304077,713.860840 1635.904785,738.691162 1621.530762,763.536011 
	C1606.824585,788.954712 1592.157349,814.395935 1577.457031,839.817993 
	C1562.925415,864.948303 1548.364990,890.062073 1533.833252,915.192322 
	C1517.811035,942.900208 1501.848022,970.642517 1485.732788,998.296143 
	C1484.072388,1001.145508 1484.275391,1003.551636 1485.759277,1006.104919 
	C1492.214355,1017.211121 1498.731812,1028.281006 1505.193115,1039.383423 
	C1510.996216,1049.354614 1516.739258,1059.360718 1522.538574,1069.334229 
	C1528.256958,1079.168335 1534.082031,1088.941284 1539.732666,1098.813965 
	C1545.467896,1108.834473 1550.954346,1118.997925 1556.719360,1129.000854 
	C1563.212769,1140.267578 1569.959717,1151.388184 1576.477051,1162.641235 
	C1582.261108,1172.628052 1587.834839,1182.736450 1593.589966,1192.740234 
	C1597.808105,1200.072021 1602.231567,1207.285767 1606.452026,1214.616333 
	C1612.210938,1224.618774 1617.838623,1234.696655 1623.570068,1244.715088 
	C1627.692383,1251.921265 1631.911133,1259.072144 1636.053101,1266.267212 
	C1641.969604,1276.544678 1647.848755,1286.843750 1653.755737,1297.126587 
	C1657.480469,1303.610596 1661.168457,1310.116699 1664.988770,1316.544067 
	C1666.844238,1319.665649 1666.229858,1322.420166 1664.534302,1325.345093 
	C1646.583374,1356.311768 1628.686646,1387.310059 1610.754639,1418.287842 
	C1599.108643,1438.406738 1587.429321,1458.506226 1575.172119,1478.661133 
	C1573.455322,1477.308960 1572.127808,1476.028198 1571.237183,1474.493774 
	C1540.498413,1421.540771 1509.770996,1368.581177 1479.105957,1315.585571 
	C1450.743286,1266.568970 1422.455322,1217.509155 1394.123413,1168.474976 
	C1393.239014,1166.944214 1392.232300,1165.484131 1390.796875,1163.227783 
	C1389.246948,1165.706665 1388.085938,1167.443481 1387.043457,1169.248657 
	C1361.967896,1212.667114 1336.889648,1256.084106 1311.853760,1299.525269 
	C1307.146118,1307.693726 1302.616699,1315.964844 1298.005127,1324.188477 
	C1293.664551,1332.114746 1289.460205,1340.119263 1284.960205,1347.953857 
	C1264.253662,1384.003418 1243.482300,1420.015747 1222.690430,1456.016113 
	C1218.735352,1462.864380 1214.583252,1469.598877 1210.016113,1476.451416 
	C1208.281738,1475.042358 1206.807373,1473.709473 1205.859985,1472.071777 
	C1176.144897,1420.707642 1146.481201,1369.313599 1116.943848,1317.599609 
	C1177.356567,1212.832642 1237.637451,1108.391479 1297.889771,1003.933960 
	C1298.779297,1002.392029 1299.312988,1000.644836 1299.975342,998.641479 
	C1299.402100,997.256653 1298.905762,996.200806 1298.324463,995.194092 
	C1253.759033,918.036499 1209.171265,840.891785 1164.624023,763.723816 
	C1148.888794,736.466187 1133.250977,709.152344 1117.733643,681.548035 
	C1119.219849,679.120483 1120.607422,677.047302 1121.852661,674.891968 
	C1150.295288,625.661072 1178.712036,576.415222 1207.199341,527.210266 
	C1208.122070,525.616333 1209.737061,524.423157 1211.029297,523.043091 
z"/>
<path fill="#919191" opacity="1.000000" stroke="none" 
	d="
M1116.809692,1317.924194 
	C1146.481201,1369.313599 1176.144897,1420.707642 1205.859985,1472.071777 
	C1206.807373,1473.709473 1208.281738,1475.042358 1209.795410,1476.707153 
	C1208.659912,1477.264771 1207.239624,1477.953003 1205.818970,1477.954102 
	C1138.987915,1478.006958 1072.156860,1477.999634 1005.325745,1477.999634 
	C829.664978,1477.999756 654.004272,1477.983765 478.343597,1478.120850 
	C474.973724,1478.123413 473.262299,1476.777710 471.887207,1474.376343 
	C461.174530,1455.668091 450.618103,1436.869629 439.828064,1418.206299 
	C428.318420,1398.298462 416.527283,1378.553345 405.009674,1358.650024 
	C397.137848,1345.046997 389.524231,1331.294678 381.738373,1317.508301 
	C384.770203,1317.680542 387.584106,1317.979980 390.398041,1317.980225 
	C568.892029,1318.002441 747.385986,1318.002930 925.880005,1317.967651 
	C927.951599,1317.967285 930.023071,1317.476196 932.780762,1317.220093 
	C935.092529,1317.482300 936.718018,1317.962402 938.343689,1317.962769 
	C997.832336,1317.977539 1057.321045,1317.947876 1116.809692,1317.924194 
z"/>
<path fill="#3F3F3F" opacity="1.000000" stroke="none" 
	d="
M1025.010254,844.417603 
	C1021.300415,851.326721 1017.757874,858.332092 1013.851990,865.128540 
	C995.858093,896.439148 977.772766,927.697205 959.699463,958.962097 
	C952.188660,971.954895 944.559998,984.879761 937.100647,997.901794 
	C921.362061,1025.377075 905.746155,1052.922485 889.992371,1080.389038 
	C875.713806,1105.283325 861.369446,1130.140503 846.855530,1154.897705 
	C845.945068,1156.450684 843.310608,1157.870972 841.474365,1157.875854 
	C782.999756,1158.029175 724.524658,1158.001831 666.049683,1157.987549 
	C664.278809,1157.987183 662.507874,1157.836182 659.664185,1157.706543 
	C662.561707,1152.477661 664.951172,1148.004395 667.485840,1143.614868 
	C725.448303,1043.237061 783.466431,942.891541 841.385864,842.489075 
	C871.923462,789.552429 902.294312,736.519592 933.149414,683.474487 
	C963.309631,734.916992 993.073547,786.407898 1022.762817,837.941833 
	C1023.883179,839.886536 1024.277588,842.249451 1025.010254,844.417603 
z"/>
<path fill="#B4B4B4" opacity="1.000000" stroke="none" 
	d="
M1116.943848,1317.599609 
	C1057.321045,1317.947876 997.832336,1317.977539 938.343689,1317.962769 
	C936.718018,1317.962402 935.092529,1317.482300 933.118164,1316.965942 
	C949.758850,1287.164429 966.734009,1257.614746 983.742249,1228.084106 
	C996.356201,1206.182861 1009.109924,1184.361328 1021.622009,1162.402222 
	C1032.823975,1142.742432 1043.641602,1122.863281 1054.885254,1103.227905 
	C1066.356567,1083.194946 1078.190308,1063.369751 1089.770630,1043.398682 
	C1098.199707,1028.861938 1106.475220,1014.236084 1115.493408,999.358521 
	C1177.449219,999.042542 1238.730835,999.017944 1300.012573,998.993408 
	C1299.312988,1000.644836 1298.779297,1002.392029 1297.889771,1003.933960 
	C1237.637451,1108.391479 1177.356567,1212.832642 1116.943848,1317.599609 
z"/>
<path fill="#919191" opacity="1.000000" stroke="none" 
	d="
M1299.975342,998.641479 
	C1238.730835,999.017944 1177.449219,999.042542 1115.715576,999.067444 
	C1109.786621,989.820496 1104.256958,980.603943 1098.844360,971.319092 
	C1089.301147,954.948792 1079.778687,938.566101 1070.345093,922.132507 
	C1063.390625,910.017822 1056.678589,897.763794 1049.698486,885.664124 
	C1043.033447,874.110596 1036.149902,862.683044 1029.390259,851.183838 
	C1028.091553,848.974731 1026.921631,846.690125 1025.351318,844.428955 
	C1024.277588,842.249451 1023.883179,839.886536 1022.762817,837.941833 
	C993.073547,786.407898 963.309631,734.916992 933.324402,683.173340 
	C933.141907,682.306519 933.193420,681.685181 933.855835,681.144653 
	C936.589417,681.483521 938.710632,681.951172 940.834778,681.964783 
	C952.317200,682.038513 963.800354,682.008606 975.283264,681.998535 
	C1022.711731,681.956848 1070.140259,681.909424 1117.568726,681.864197 
	C1133.250977,709.152344 1148.888794,736.466187 1164.624023,763.723816 
	C1209.171265,840.891785 1253.759033,918.036499 1298.324463,995.194092 
	C1298.905762,996.200806 1299.402100,997.256653 1299.975342,998.641479 
z"/>
<path fill="#919191" opacity="1.000000" stroke="none" 
	d="
M396.062378,708.782471 
	C390.832855,699.530457 385.819702,690.590393 380.839844,681.709717 
	C503.342041,681.709717 625.737183,681.709717 749.214905,681.709717 
	C717.885620,736.005859 687.149780,789.273315 656.504761,842.383484 
	C654.914185,842.269836 653.021240,842.017151 651.128174,842.016479 
	C593.299500,841.995605 535.470703,841.953308 477.642487,842.113831 
	C474.162018,842.123596 472.367035,840.928894 470.814575,838.202148 
	C457.842682,815.418823 444.850586,792.646912 431.806213,769.905029 
	C420.364197,749.956726 408.849121,730.050354 397.347565,710.136353 
	C397.108002,709.721558 396.640137,709.438660 396.062378,708.782471 
z"/>
<path fill="#919191" opacity="1.000000" stroke="none" 
	d="
M1298.330811,1324.304932 
	C1302.616699,1315.964844 1307.146118,1307.693726 1311.853760,1299.525269 
	C1336.889648,1256.084106 1361.967896,1212.667114 1387.043457,1169.248657 
	C1388.085938,1167.443481 1389.246948,1165.706665 1390.796875,1163.227783 
	C1392.232300,1165.484131 1393.239014,1166.944214 1394.123413,1168.474976 
	C1422.455322,1217.509155 1450.743286,1266.568970 1479.105957,1315.585571 
	C1509.770996,1368.581177 1540.498413,1421.540771 1571.237183,1474.493774 
	C1572.127808,1476.028198 1573.455322,1477.308960 1574.895996,1478.863525 
	C1574.037598,1479.346313 1572.862671,1479.959229 1571.687256,1479.960083 
	C1510.536987,1480.006592 1449.386841,1480.000977 1388.437622,1480.000977 
	C1358.459473,1428.052368 1328.558105,1376.236816 1298.330811,1324.304932 
z"/>
<path fill="#B4B4B4" opacity="1.000000" stroke="none" 
	d="
M1574.748291,524.533813 
	C1573.546631,526.706482 1571.919067,528.354187 1570.795776,530.293884 
	C1542.563354,579.046692 1514.399658,627.839294 1486.191162,676.606018 
	C1455.948730,728.889038 1425.673340,781.152954 1395.408203,833.422668 
	C1394.585205,834.843750 1393.711548,836.235596 1392.519043,838.207336 
	C1386.757446,828.242798 1381.275146,818.788757 1375.818848,809.319763 
	C1351.135742,766.483093 1326.461060,723.641479 1301.775269,680.806274 
	C1301.115234,679.661316 1300.360840,678.570923 1299.892212,677.149414 
	C1314.383911,652.192261 1328.627686,627.537292 1342.885376,602.890381 
	C1357.733643,577.222473 1372.565918,551.545044 1387.551880,525.957642 
	C1388.192871,524.863220 1390.307739,524.082092 1391.737793,524.079346 
	C1441.524658,523.984070 1491.311768,523.991333 1541.098755,524.006592 
	C1552.251709,524.010010 1563.404541,524.096558 1574.748291,524.533813 
z"/>
<path fill="#B4B4B4" opacity="1.000000" stroke="none" 
	d="
M1117.733643,681.548035 
	C1070.140259,681.909424 1022.711731,681.956848 975.283264,681.998535 
	C963.800354,682.008606 952.317200,682.038513 940.834778,681.964783 
	C938.710632,681.951172 936.589417,681.483521 934.118164,680.965332 
	C950.673889,651.293213 967.564941,621.873535 984.487427,592.471863 
	C997.347961,570.127747 1010.275452,547.821960 1023.092712,525.453064 
	C1024.452881,523.079285 1025.849731,521.911255 1028.857422,521.916626 
	C1089.001099,522.025208 1149.144897,521.994202 1209.288696,522.000122 
	C1209.780762,522.000183 1210.272705,522.120667 1210.896973,522.614014 
	C1209.737061,524.423157 1208.122070,525.616333 1207.199341,527.210266 
	C1178.712036,576.415222 1150.295288,625.661072 1121.852661,674.891968 
	C1120.607422,677.047302 1119.219849,679.120483 1117.733643,681.548035 
z"/>
<path fill="#B4B4B4" opacity="1.000000" stroke="none" 
	d="
M1300.088013,676.618530 
	C1299.776733,676.810852 1299.381592,676.724426 1298.988281,676.256592 
	C1299.328125,676.030029 1299.666016,676.184875 1300.088013,676.618530 
z"/>
</svg>